<svg xmlns="http://www.w3.org/2000/svg" version="1.2" viewBox="0 0 1080 1080" preserveAspectRatio="xMidYMid meet" baseProfile="tiny-ps" xml:space="preserve"><title>WebCraft</title>
  <path d="M0 0 C356.4 0 712.8 0 1080 0 C1080 356.4 1080 712.8 1080 1080 C723.6 1080 367.2 1080 0 1080 C0 723.6 0 367.2 0 0 Z " fill="#FEFEFE" transform="translate(0,0)"/>
  <path d="M0 0 C14.92498601 -0.09343248 29.84994936 -0.16397381 44.77516556 -0.20724869 C51.70519028 -0.2278759 58.6350333 -0.2559992 65.56494141 -0.30175781 C72.24983984 -0.34587758 78.9345103 -0.36912265 85.61956024 -0.37950897 C88.17291998 -0.38691284 90.72626911 -0.40137041 93.27954865 -0.42292023 C96.84968093 -0.45186017 100.41902755 -0.4559598 103.98925781 -0.45410156 C105.58068855 -0.47567322 105.58068855 -0.47567322 107.20426941 -0.49768066 C114.37360615 -0.45717028 114.37360615 -0.45717028 117.60978699 1.90473938 C118.96676202 3.94990535 120.23163416 5.93414891 121.34765625 8.12109375 C121.77820313 8.95519775 122.20875 9.78930176 122.65234375 10.64868164 C123.11769531 11.5689917 123.58304687 12.48930176 124.0625 13.4375 C124.5678125 14.42032959 125.073125 15.40315918 125.59375 16.41577148 C127.06568101 19.2819242 128.53047622 22.15160774 129.99249268 25.02282715 C133.07139004 31.06497903 136.16396362 37.10016474 139.25637817 43.13540649 C140.08892672 44.76023579 140.92117936 46.38521675 141.75314331 48.01034546 C146.86845782 57.99767341 152.06488587 67.92267293 157.50390625 77.73852539 C162.00566997 85.90576604 166.25034166 94.19986787 170.5 102.5 C175.76064301 112.77373995 181.10390816 122.98334938 186.67919922 133.09106445 C192.12916953 142.99474377 197.29436169 153.0446919 202.48779297 163.08447266 C204.70386625 167.35705049 206.94274158 171.61743857 209.1875 175.875 C209.58855957 176.63578857 209.98961914 177.39657715 210.40283203 178.18041992 C211.20116173 179.69426437 211.99966286 181.20801843 212.79833984 182.72167969 C215.28899585 187.4439068 217.7737687 192.16923355 220.25952148 196.89404297 C222.29034035 200.75358561 224.3227042 204.61229181 226.359375 208.46875 C227.15638737 209.97909418 227.95326072 211.48951174 228.75 213 C229.15001221 213.75804932 229.55002441 214.51609863 229.9621582 215.29711914 C232.49695692 220.11191113 235.00435334 224.94011872 237.49609375 229.77734375 C238.1129347 230.97331814 238.72979678 232.16928163 239.34667969 233.36523438 C240.53973554 235.67853562 241.72852783 237.99386525 242.91503906 240.31054688 C245.75306083 245.81607957 248.69556333 251.13095855 251.98828125 256.37890625 C254.08123405 259.94918574 254.97877402 261.6107236 255.20703125 265.796875 C253.77458207 269.59819646 251.93447985 272.8908916 249.6875 276.25 C248.77341101 277.66534748 247.85934969 279.08071282 246.9453125 280.49609375 C246.22263184 281.59993408 246.22263184 281.59993408 245.48535156 282.72607422 C242.97679393 286.56642692 240.51770897 290.43789206 238.0625 294.3125 C237.31238647 295.49428833 237.31238647 295.49428833 236.54711914 296.69995117 C231.97209073 303.95311669 227.66908198 311.34991524 223.42578125 318.80078125 C221.08250169 322.90311548 218.57593656 326.88509646 215.92578125 330.796875 C213.32843692 336.97789694 215.63918668 342.6258582 218 348.4375 C218.28617188 349.16904297 218.57234375 349.90058594 218.8671875 350.65429688 C219.56760423 352.44035954 220.28233811 354.22079656 221 356 C228.33956969 350.45454734 233.50407667 343.27338455 239 336 C239.58378418 335.23252441 240.16756836 334.46504883 240.76904297 333.67431641 C247.85247377 324.35735456 254.80225858 314.96381466 261.50708008 305.37060547 C265.29858681 299.95670722 269.19262655 294.62480213 273.125 289.3125 C277.55105823 283.33276586 281.93922739 277.33167021 286.24926758 271.26782227 C289.58192608 266.57939152 292.94265069 261.91176609 296.3125 257.25 C296.86043213 256.49195068 297.40836426 255.73390137 297.97290039 254.95288086 C299.09072453 253.40666903 300.20864504 251.86052687 301.32666016 250.31445312 C304.05263139 246.54406981 306.77621534 242.77196306 309.5 239 C310.58332144 237.49999141 311.66665479 235.99999142 312.75 234.5 C313.28625 233.7575 313.8225 233.015 314.375 232.25 C319.25 225.5 319.25 225.5 320.87475586 223.25048828 C321.95909313 221.74899797 323.04323999 220.24737013 324.12719727 218.74560547 C326.81863342 215.01726152 329.5132324 211.29129135 332.21484375 207.5703125 C338.48224705 198.92981475 344.65618518 190.23109423 350.76049805 181.47460938 C356.26457573 173.59173501 361.89401672 165.80279951 367.53759766 158.01953125 C373.85345642 149.29753063 380.06703658 140.50408303 386.25 131.6875 C386.8287085 130.86330566 387.40741699 130.03911133 388.00366211 129.18994141 C391.745849 123.84303855 395.40361963 118.44601742 399 113 C401.23510742 113.11181641 401.23510742 113.11181641 404 114 C405.64692902 116.06916536 406.92483816 117.94648155 408.23828125 120.2109375 C409.02400806 121.49801497 409.81132309 122.784124 410.60009766 124.06933594 C410.99779358 124.72623413 411.3954895 125.38313232 411.80523682 126.05993652 C413.63296963 129.0278198 415.58078441 131.9089757 417.54296875 134.7890625 C418.10750259 135.62197311 418.10750259 135.62197311 418.68344116 136.47171021 C419.84947495 138.19083208 421.01829841 139.90803137 422.1875 141.625 C422.59730103 142.22805969 423.00710205 142.83111938 423.42932129 143.45245361 C429.19437208 151.93566428 435.02201018 160.37166046 440.92797852 168.75756836 C445.22087604 174.8603089 449.43338867 181.01483434 453.625 187.1875 C458.53971789 194.42365121 463.51636235 201.6082065 468.58251953 208.73901367 C472.84520809 214.75007616 477.00086923 220.831205 481.14941406 226.92138672 C484.67500959 232.08799053 488.25288464 237.21319891 491.875 242.3125 C496.72123816 249.15003866 501.5044746 256.02967634 506.25 262.9375 C506.9188623 263.90405518 507.58772461 264.87061035 508.27685547 265.86645508 C508.89189941 266.76517334 509.50694336 267.6638916 510.140625 268.58984375 C510.69266602 269.39284912 511.24470703 270.19585449 511.81347656 271.02319336 C513 273 513 273 513 275 C513.66 275 514.32 275 515 275 C516.48828125 276.9921875 516.48828125 276.9921875 518.3125 279.875 C521.81271692 285.26140976 525.46976433 290.49407645 529.25 295.6875 C533.54341376 301.59536644 537.80142477 307.52432748 542 313.5 C546.13934548 319.38989665 550.33315032 325.23693402 554.5625 331.0625 C559.09712152 337.3146287 563.53320452 343.62355449 567.88671875 350.00292969 C571.90182021 355.88134437 576.00072813 361.69850718 580.11743164 367.50610352 C580.59559326 368.18084717 581.07375488 368.85559082 581.56640625 369.55078125 C581.98865479 370.14544189 582.41090332 370.74010254 582.84594727 371.3527832 C583.92018279 372.88607432 584.96151536 374.44227304 586 376 C584.99485221 345.6445367 575.39208211 315.11553269 560.94140625 288.578125 C559.036005 285.07424557 557.16220581 281.56626945 555.375 278 C554.86710938 277.01 554.35921875 276.02 553.8359375 275 C552.42218632 269.92635089 554.05507701 266.74971584 556.44873047 262.31738281 C557.99688223 259.64506518 559.5775931 256.99656899 561.18865967 254.36175537 C563.01592972 251.37164845 564.8158195 248.3651336 566.6171875 245.359375 C566.98538605 244.74613373 567.35358459 244.13289246 567.73294067 243.50106812 C571.40636685 237.36259691 574.90484044 231.13036205 578.375 224.875 C582.53143243 217.3955007 586.73510943 209.95705906 591.10302734 202.59912109 C594.9584457 196.09847038 598.72985924 189.55040331 602.5 183 C607.9308961 173.56867613 613.40698677 164.16646516 618.94189453 154.79589844 C621.15208521 151.04459188 623.33884984 147.27961944 625.52734375 143.515625 C626.01332031 142.68546875 626.49929688 141.8553125 627 141 C627.47566406 140.12859375 627.95132813 139.2571875 628.44140625 138.359375 C630.14800974 135.77594515 631.34240234 134.57794861 634 133 C636.97436523 132.64355469 636.97436523 132.64355469 640.55859375 132.671875 C641.56768044 132.67414093 641.56768044 132.67414093 642.59715271 132.67645264 C644.87763022 132.68599298 647.15723639 132.71788444 649.4375 132.75 C651.06330658 132.76208194 652.68912122 132.77311655 654.31494141 132.78320312 C660.21037979 132.82807327 666.10505144 132.91320217 672 133 C673.24545593 133.01780518 674.49091187 133.03561035 675.77410889 133.05395508 C694.85015652 133.32791479 713.92522087 133.64848492 733 134 C732.50755421 138.97745479 731.53104063 142.44925759 728.97265625 146.73828125 C728.35052246 147.79619873 727.72838867 148.85411621 727.08740234 149.9440918 C726.08507568 151.61145386 726.08507568 151.61145386 725.0625 153.3125 C724.37054204 154.48332492 723.67996187 155.65496514 722.99072266 156.82739258 C721.95654427 158.58649005 720.92175059 160.34516992 719.88275146 162.10142517 C717.13165382 166.75328345 714.47675994 171.4509345 711.875 176.1875 C703.77779413 190.86199308 695.51198388 205.44102358 687.09619141 219.93505859 C679.93497794 232.27042412 672.83534065 244.64018324 665.9375 257.125 C662.14975927 263.98065982 658.25923485 270.77042616 654.31835938 277.5390625 C650.6375471 283.87108921 647.03000425 290.24252753 643.4375 296.625 C639.36973284 303.84658896 635.2480375 311.02839959 631.01928711 318.15673828 C626.93649659 325.06082402 622.97077203 332.03118264 619 339 C613.4082064 348.81192639 607.76003228 358.58647426 602.00244141 368.30224609 C600.52913769 370.7974614 599.07794512 373.30538945 597.625 375.8125 C595.12316162 380.11217108 592.5707559 384.37879611 590.00048828 388.63769531 C584.16799433 398.30600777 578.4876168 408.05349916 572.86499023 417.84521484 C567.49906347 427.17387202 562.03102762 436.43864414 556.515625 445.67944336 C553.73479074 450.3458408 550.96361438 455.00786026 548.35546875 459.7734375 C547.98800537 460.44213867 547.62054199 461.11083984 547.24194336 461.79980469 C546.34170314 463.45626442 545.45890168 465.12217206 544.578125 466.7890625 C542.74278118 469.36036103 541.97974802 469.43297553 539 470 C538.68331863 469.53013168 538.36663727 469.06026337 538.0403595 468.57615662 C509.49757512 426.10781001 509.49757512 426.10781001 480.6484375 383.84765625 C477.33100019 379.03570446 474.04144883 374.2047478 470.75 369.375 C470.11747314 368.44719727 469.48494629 367.51939453 468.83325195 366.56347656 C465.5946485 361.81183229 462.35944185 357.0579145 459.12890625 352.30078125 C452.51995896 342.57564581 445.85833624 332.8957953 439.05078125 323.30859375 C436.80474156 320.14395574 434.57616475 316.96763051 432.35546875 313.78515625 C431.42456421 312.45121826 431.42456421 312.45121826 430.47485352 311.09033203 C429.28026857 309.37720546 428.08667486 307.66338708 426.89428711 305.94873047 C423.74790415 301.43942155 420.52963053 297.03452076 417.09179688 292.74169922 C416 291 416 291 415.875 287.6875 C417 284 417 284 417.98046875 281.6796875 C422.1900186 271.49774383 422.74171395 260.71863983 418.99194336 250.30273438 C417.23819964 246.23152817 414.93915843 242.54452188 412.5625 238.8125 C411.84610352 237.66104492 411.84610352 237.66104492 411.11523438 236.48632812 C408.48355366 232.27347298 405.76283128 228.12822891 403 224 C402.93437866 225.66216553 402.93437866 225.66216553 402.86743164 227.35791016 C402.69115471 231.53915652 402.45956049 235.71593502 402.21264648 239.89355469 C402.11396773 241.68870568 402.0295498 243.48470794 401.96069336 245.28125 C401.44474222 258.39592287 399.0857811 266.65055348 391 277 C390.09143302 278.35179571 389.19476325 279.71182634 388.3203125 281.0859375 C383.58671268 288.17791445 378.798524 295.22842047 373.9543457 302.24536133 C371.36913684 305.99380049 368.81933518 309.76092577 366.3125 313.5625 C360.99539944 321.58191299 355.44731104 329.44290139 349.9453125 337.3359375 C340.63349239 350.69599074 331.48013992 364.16297051 322.328125 377.6328125 C318.39147239 383.42601424 314.44732751 389.21406832 310.5 395 C305.11714119 402.89050429 299.74395754 410.78753099 294.375 418.6875 C282.90797401 435.55790419 282.90797401 435.55790419 277.69116211 443.14086914 C274.90723365 447.19041938 272.15899949 451.25975559 269.44921875 455.359375 C268.86172852 456.23996582 268.27423828 457.12055664 267.66894531 458.02783203 C266.5404727 459.72054095 265.42085897 461.41919983 264.31152344 463.12451172 C263.80524414 463.88006348 263.29896484 464.63561523 262.77734375 465.4140625 C262.33640381 466.0838916 261.89546387 466.7537207 261.44116211 467.44384766 C259.71178326 469.31121353 258.48011891 469.62537971 256 470 C251.87190428 463.63453943 248.27561865 457.04965509 244.72744751 450.3460083 C243.06352875 447.20352974 241.38954651 444.06642912 239.71484375 440.9296875 C239.38804123 440.31741302 239.06123871 439.70513855 238.72453308 439.0743103 C235.98115966 433.94430018 233.15635831 428.86624915 230.2800293 423.81005859 C227.14178624 418.28387855 224.09839034 412.70796704 221.0625 407.125 C217.4620986 400.50696352 213.85087631 393.89591473 210.1875 387.3125 C209.79353027 386.60448242 209.39956055 385.89646484 208.99365234 385.16699219 C207.10256549 381.77090611 205.20960486 378.37586626 203.31640625 374.98095703 C196.54436976 362.83316146 189.79569375 350.67537028 183.1875 338.4375 C176.36701786 325.81044682 169.53207616 313.20648905 162.1875 300.875 C156.91329245 292.0115615 152.04599396 282.93697286 147.16015625 273.85546875 C144.45987894 268.83881289 141.71565676 263.84886946 138.9375 258.875 C135.33257359 252.41848062 131.78022857 245.93515037 128.25 239.4375 C123.33926617 230.40352797 118.32720327 221.42956521 113.28662109 212.4675293 C109.24511544 205.26564405 105.28832665 198.0222213 101.375 190.75 C97.35028305 183.27284095 93.24142173 175.85640109 89 168.5 C83.54662939 159.04010813 78.33459581 149.46026585 73.15625 139.84765625 C70.27908417 134.50722344 67.36699972 129.18686996 64.4375 123.875 C57.46425718 111.22266137 50.53393362 98.54684662 43.66796875 85.8359375 C38.72681953 76.68845453 33.78369217 67.54709249 28.66113281 58.49975586 C22.65317509 47.87287809 16.7683081 37.17698416 10.90332031 26.47070312 C9.70049144 24.2773456 8.49452017 22.08570581 7.28417969 19.89648438 C5.82304527 17.24993551 4.37754008 14.59556849 2.9375 11.9375 C2.51412354 11.17719482 2.09074707 10.41688965 1.65454102 9.63354492 C-1.0915351 4.5024211 -1.0915351 4.5024211 -0.59545898 1.77954102 C-0.39895752 1.19229248 -0.20245605 0.60504395 0 0 Z " fill="#000000" transform="translate(87,392)"/>
  <path d="M0 0 C1.00908669 0.00226593 1.00908669 0.00226593 2.03855896 0.00457764 C4.31903647 0.01411798 6.59864264 0.04600944 8.87890625 0.078125 C10.50471283 0.09020694 12.13052747 0.10124155 13.75634766 0.11132812 C19.65178604 0.15619827 25.54645769 0.24132717 31.44140625 0.328125 C32.68686218 0.34593018 33.93231812 0.36373535 35.21551514 0.38208008 C54.29156277 0.65603979 73.36662712 0.97660992 92.44140625 1.328125 C91.94896046 6.30557979 90.97244688 9.77738259 88.4140625 14.06640625 C87.48086182 15.65328247 87.48086182 15.65328247 86.52880859 17.2722168 C85.86059082 18.3837915 85.19237305 19.49536621 84.50390625 20.640625 C83.81194829 21.81144992 83.12136812 22.98309014 82.43212891 24.15551758 C81.39795052 25.91461505 80.36315684 27.67329492 79.32415771 29.42955017 C76.57306007 34.08140845 73.91816619 38.7790595 71.31640625 43.515625 C63.21920038 58.19011808 54.95339013 72.76914858 46.53759766 87.26318359 C39.37638419 99.59854912 32.2767469 111.96830824 25.37890625 124.453125 C21.59116552 131.30878482 17.7006411 138.09855116 13.75976562 144.8671875 C10.07895335 151.19921421 6.4714105 157.57065253 2.87890625 163.953125 C-1.18886091 171.17471396 -5.31055625 178.35652459 -9.53930664 185.48486328 C-13.62209716 192.38894902 -17.58782172 199.35930764 -21.55859375 206.328125 C-26.42129934 214.86071986 -31.28456307 223.39174177 -36.31323242 231.828125 C-38.1152413 234.85199891 -39.87573443 237.88378692 -41.54296875 240.984375 C-42.14625 242.0878125 -42.74953125 243.19125 -43.37109375 244.328125 C-43.87253906 245.276875 -44.37398437 246.225625 -44.890625 247.203125 C-46.55859375 249.328125 -46.55859375 249.328125 -49.2578125 250.140625 C-50.01707031 250.2025 -50.77632812 250.264375 -51.55859375 250.328125 C-53.172479 247.43938533 -53.87369022 245.10488179 -54.19921875 241.8203125 C-54.29686523 240.92940918 -54.39451172 240.03850586 -54.49511719 239.12060547 C-54.59856445 238.15783691 -54.70201172 237.19506836 -54.80859375 236.203125 C-57.8877781 210.59362225 -64.34478742 185.39409727 -76.40380859 162.52392578 C-78.71497537 158.12928857 -80.96768837 153.70899902 -83.18359375 149.265625 C-83.64612549 148.38455078 -84.10865723 147.50347656 -84.58520508 146.59570312 C-86.47196528 142.78058715 -87.63589704 140.27453808 -87.28515625 135.98046875 C-85.24748479 130.95211582 -82.19173075 126.30477863 -79.36993408 121.68988037 C-77.54266403 118.69977345 -75.74277425 115.6932586 -73.94140625 112.6875 C-73.38910843 111.76763809 -73.38910843 111.76763809 -72.82565308 110.82919312 C-69.1522269 104.69072191 -65.65375331 98.45848705 -62.18359375 92.203125 C-58.02716132 84.7236257 -53.82348432 77.28518406 -49.45556641 69.92724609 C-45.60014805 63.42659538 -41.82873451 56.87852831 -38.05859375 50.328125 C-32.62769765 40.89680113 -27.15160698 31.49459016 -21.61669922 22.12402344 C-19.40650854 18.37271688 -17.21974391 14.60774444 -15.03125 10.84375 C-14.54527344 10.01359375 -14.05929687 9.1834375 -13.55859375 8.328125 C-12.84509766 7.02101563 -12.84509766 7.02101563 -12.1171875 5.6875 C-8.80595461 0.6750071 -5.89595751 -0.04658614 0 0 Z " fill="#0551E3" transform="translate(727.55859375,524.671875)"/>
  <path d="M0 0 C1.03678391 -0.00262848 1.03678391 -0.00262848 2.09451294 -0.00531006 C4.38391617 -0.00971889 6.67324244 -0.00679431 8.96264648 -0.00341797 C10.54923009 -0.00409121 12.1358136 -0.0050614 13.72239685 -0.00631714 C17.04882793 -0.00779273 20.37523219 -0.0056437 23.70166016 -0.00097656 C27.97478905 0.00472529 32.24785519 0.00143797 36.52098179 -0.00454903 C39.79709856 -0.00815441 43.07320034 -0.00701624 46.34931755 -0.00442123 C47.92545517 -0.00375214 49.50159413 -0.00457977 51.07773018 -0.00690079 C53.2758154 -0.00942745 55.4737975 -0.00558678 57.671875 0 C58.92492935 0.00079559 60.1779837 0.00159119 61.4690094 0.00241089 C64.27124023 0.12939453 64.27124023 0.12939453 65.27124023 1.12939453 C65.36529165 3.12371183 65.38867273 5.12138996 65.38476562 7.11791992 C65.38465233 9.03979881 65.38465233 9.03979881 65.38453674 11.00050354 C65.37942933 12.40935301 65.37421332 13.81820209 65.36889648 15.22705078 C65.36703226 16.66051687 65.36560838 18.0939836 65.36460876 19.52745056 C65.36078396 23.3069941 65.350954 27.08649943 65.33990479 30.86602783 C65.32789503 35.39727234 65.32328825 39.9285296 65.31745148 44.45978546 C65.30774221 51.34968175 65.28858544 58.23949415 65.27124023 65.12939453 C85.40124023 65.12939453 105.53124023 65.12939453 126.27124023 65.12939453 C126.27124023 87.89939453 126.27124023 110.66939453 126.27124023 134.12939453 C109.47217773 134.16033203 109.47217773 134.16033203 92.33374023 134.19189453 C88.79276611 134.20099854 85.25179199 134.21010254 81.60351562 134.21948242 C77.29162598 134.22399902 77.29162598 134.22399902 75.27537537 134.22483826 C73.86208278 134.2263775 72.44879154 134.22990204 71.0355072 134.23497009 C68.89929917 134.24225001 66.76317164 134.24330187 64.62695312 134.24291992 C62.818265 134.24625084 62.818265 134.24625084 60.97303772 134.24964905 C58.27124023 134.12939453 58.27124023 134.12939453 57.27124023 133.12939453 C57.1774797 131.31884428 57.15379914 129.50462252 57.15771484 127.69165039 C57.15782814 125.94995827 57.15782814 125.94995827 57.15794373 124.17308044 C57.16310501 122.90956253 57.1682663 121.64604462 57.17358398 120.34423828 C57.17499893 119.05828262 57.17641388 117.77232697 57.1778717 116.44740295 C57.18169605 113.02296011 57.19152562 109.59855944 57.20257568 106.1741333 C57.21279159 102.68201264 57.21736971 99.18988519 57.22241211 95.69775391 C57.23314797 88.84161675 57.25022339 81.98550766 57.27124023 75.12939453 C56.01279297 75.1596875 54.7543457 75.18998047 53.45776367 75.22119141 C48.68649677 75.33540307 43.91516004 75.44644579 39.14379883 75.55664062 C37.09788079 75.6043094 35.0519813 75.65278232 33.00610352 75.70214844 C22.28789771 75.96022809 11.57086884 76.17990972 0.84936523 76.22314453 C-0.00441711 76.22963013 -0.85819946 76.23611572 -1.737854 76.24279785 C-3.73517973 76.24435199 -5.73243483 76.19263382 -7.72875977 76.12939453 C-8.72875977 75.12939453 -8.72875977 75.12939453 -8.84901428 72.19981384 C-8.84679367 70.8874324 -8.84457306 69.57505096 -8.84228516 68.22290039 C-8.84243118 67.50099014 -8.84257721 66.7790799 -8.84272766 66.03529358 C-8.84202845 63.63824506 -8.83423572 61.2412733 -8.82641602 58.84423828 C-8.82455186 57.18656965 -8.82312795 55.52890046 -8.8221283 53.87123108 C-8.81830289 49.49985239 -8.80847242 45.12850672 -8.79742432 40.75714111 C-8.78721068 36.29984992 -8.78263078 31.84255342 -8.77758789 27.38525391 C-8.76685017 18.6332856 -8.74977348 9.88134417 -8.72875977 1.12939453 C-5.81330189 -0.32833441 -3.25602696 0.00206602 0 0 Z " fill="#0553E5" transform="translate(780.728759765625,391.87060546875)"/>
  <path d="M0 0 C22.77 0 45.54 0 69 0 C69 21.12 69 42.24 69 64 C77.91 64 86.82 64 96 64 C97 65 97 65 97.11352539 68.78540039 C97.11327425 70.47282728 97.10771112 72.1602593 97.09765625 73.84765625 C97.09664917 74.63297729 97.09564209 75.41829834 97.09460449 76.22741699 C97.08935638 79.17245943 97.07539523 82.11748112 97.0625 85.0625 C97.041875 91.641875 97.02125 98.22125 97 105 C83.47 105 69.94 105 56 105 C56 93.45 56 81.9 56 70 C52.04128906 70.01160156 48.08257813 70.02320313 44.00390625 70.03515625 C40.18807048 70.04294533 36.37223558 70.04902294 32.55639648 70.05493164 C29.89558519 70.05997383 27.23477668 70.06680736 24.57397461 70.07543945 C20.75894484 70.08751009 16.94395156 70.09322929 13.12890625 70.09765625 C11.33206139 70.10539818 11.33206139 70.10539818 9.49891663 70.11329651 C7.84731789 70.11340981 7.84731789 70.11340981 6.16235352 70.11352539 C5.18750504 70.115746 4.21265656 70.11796661 3.20826721 70.12025452 C1 70 1 70 0 69 C-0.09425595 66.85256451 -0.11742648 64.70198974 -0.11352539 62.55249023 C-0.11364593 61.86842889 -0.11376646 61.18436754 -0.11389065 60.47957706 C-0.11314171 58.25588337 -0.10551441 56.03227254 -0.09765625 53.80859375 C-0.09618677 52.43949423 -0.0951661 51.07039414 -0.09460449 49.70129395 C-0.08935232 44.61335409 -0.07539122 39.52542624 -0.0625 34.4375 C-0.041875 23.073125 -0.02125 11.70875 0 0 Z " fill="#0654E6" transform="translate(863,326)"/>
  <path d="M0 0 C2.02481079 -0.36076355 2.02481079 -0.36076355 4.54150391 -0.34057617 C5.97248413 -0.34003235 5.97248413 -0.34003235 7.43237305 -0.33947754 C8.93924683 -0.31645569 8.93924683 -0.31645569 10.4765625 -0.29296875 C11.39848389 -0.28994751 12.32040527 -0.28692627 13.27026367 -0.28381348 C16.72195594 -0.2680892 20.17348893 -0.22620533 23.625 -0.1875 C31.33875 -0.125625 39.0525 -0.06375 47 0 C47 16.5 47 33 47 50 C39.100625 50.020625 31.20125 50.04125 23.0625 50.0625 C20.5656665 50.071604 18.06883301 50.08070801 15.49633789 50.09008789 C13.53011123 50.0930069 11.56388396 50.09555549 9.59765625 50.09765625 C8.56636597 50.10277222 7.53507568 50.10788818 6.47253418 50.11315918 C5.49812378 50.11328003 4.52371338 50.11340088 3.51977539 50.11352539 C2.66928116 50.115746 1.81878693 50.11796661 0.94252014 50.12025452 C-1 50 -1 50 -2 49 C-2.103312 47.57339135 -2.13849854 46.14175436 -2.14526367 44.71142578 C-2.15164352 43.8002298 -2.15802338 42.88903381 -2.16459656 41.95022583 C-2.16570938 40.95860443 -2.1668222 39.96698303 -2.16796875 38.9453125 C-2.17129715 37.9328244 -2.17462555 36.9203363 -2.17805481 35.87716675 C-2.18312896 33.73012752 -2.18546299 31.58308037 -2.18530273 29.43603516 C-2.18748605 26.14602672 -2.20562795 22.85635513 -2.22460938 19.56640625 C-2.22754379 17.48437615 -2.22952826 15.40234445 -2.23046875 13.3203125 C-2.23765427 12.33273956 -2.24483978 11.34516663 -2.25224304 10.32766724 C-2.24916641 9.41016693 -2.24608978 8.49266663 -2.24291992 7.54736328 C-2.24434494 6.73985626 -2.24576996 5.93234924 -2.24723816 5.10037231 C-2 3 -2 3 0 0 Z " fill="#0956E7" transform="translate(954,279)"/>
  <path d="M0 0 C8.19690561 -0.0231271 16.39379768 -0.04091696 24.59072781 -0.05181217 C28.39651577 -0.0570402 32.20228148 -0.06413638 36.00805664 -0.07543945 C39.67792544 -0.0862712 43.34777278 -0.09227744 47.01765633 -0.09487724 C48.42074992 -0.09673097 49.82384229 -0.1003506 51.2269268 -0.10573006 C53.1856968 -0.11294419 55.1444882 -0.11340809 57.10327148 -0.11352539 C58.22023911 -0.115746 59.33720673 -0.11796661 60.48802185 -0.12025452 C63 0 63 0 64 1 C64.09405142 2.9943173 64.11743249 4.99199543 64.11352539 6.98852539 C64.11341209 8.91040428 64.11341209 8.91040428 64.11329651 10.87110901 C64.10818909 12.27995848 64.10297309 13.68880756 64.09765625 15.09765625 C64.09579202 16.53112234 64.09436814 17.96458907 64.09336853 19.39805603 C64.08954372 23.17759957 64.07971377 26.9571049 64.06866455 30.7366333 C64.0566548 35.26787781 64.05204801 39.79913507 64.04621124 44.33039093 C64.03650198 51.22028722 64.0173452 58.11009962 64 65 C84.13 65 104.26 65 125 65 C125 87.77 125 110.54 125 134 C108.2009375 134.0309375 108.2009375 134.0309375 91.0625 134.0625 C87.52152588 134.071604 83.98055176 134.08070801 80.33227539 134.09008789 C76.02038574 134.09460449 76.02038574 134.09460449 74.00413513 134.09544373 C72.59084255 134.09698297 71.1775513 134.10050751 69.76426697 134.10557556 C67.62805893 134.11285548 65.4919314 134.11390734 63.35571289 134.11352539 C61.54702477 134.11685631 61.54702477 134.11685631 59.70179749 134.12025452 C57 134 57 134 56 133 C55.90623947 131.18944975 55.8825589 129.37522799 55.88647461 127.56225586 C55.88658791 125.82056374 55.88658791 125.82056374 55.88670349 124.04368591 C55.89186478 122.780168 55.89702606 121.51665009 55.90234375 120.21484375 C55.9037587 118.92888809 55.90517365 117.64293243 55.90663147 116.31800842 C55.91045582 112.89356557 55.92028538 109.46916491 55.93133545 106.04473877 C55.94155136 102.55261811 55.94612947 99.06049066 55.95117188 95.56835938 C55.96190773 88.71222222 55.97898316 81.85611313 56 75 C54.74155273 75.03029297 53.48310547 75.06058594 52.18652344 75.09179688 C47.41525654 75.20600854 42.64391981 75.31705126 37.87255859 75.42724609 C35.82664056 75.47491486 33.78074106 75.52338779 31.73486328 75.57275391 C21.01665748 75.83083355 10.29962861 76.05051519 -0.421875 76.09375 C-1.27565735 76.1002356 -2.1294397 76.10672119 -3.00909424 76.11340332 C-5.00641996 76.11495746 -7.00367506 76.06323929 -9 76 C-10 75 -10 75 -10.12025452 72.07041931 C-10.11803391 70.75803787 -10.11581329 69.44565643 -10.11352539 68.09350586 C-10.11367142 67.37159561 -10.11381744 66.64968536 -10.1139679 65.90589905 C-10.11326869 63.50885053 -10.10547595 61.11187877 -10.09765625 58.71484375 C-10.0957921 57.05717511 -10.09436818 55.39950593 -10.09336853 53.74183655 C-10.08954312 49.37045786 -10.07971265 44.99911219 -10.06866455 40.62774658 C-10.05845092 36.17045539 -10.05387101 31.71315889 -10.04882812 27.25585938 C-10.0380904 18.50389107 -10.02101371 9.75194964 -10 1 C-7.36 1 -4.72 1 -2 1 C-2 1.33 -2 1.66 -2 2 C-3.98 2 -5.96 2 -8 2 C-8 25.1 -8 48.2 -8 72 C13.78 72 35.56 72 58 72 C59.30760893 74.61521785 59.11997548 76.53113401 59.11352539 79.45947266 C59.11340454 80.61648682 59.11328369 81.77350098 59.11315918 82.96557617 C59.10804321 84.18607666 59.10292725 85.40657715 59.09765625 86.6640625 C59.09664917 87.78256592 59.09564209 88.90106934 59.09460449 90.0534668 C59.08936032 94.24398825 59.07539913 98.43449512 59.0625 102.625 C59.041875 111.98875 59.02125 121.3525 59 131 C80.12 131 101.24 131 123 131 C123 109.88 123 88.76 123 67 C102.87 67 82.74 67 62 67 C62 45.88 62 24.76 62 3 C41.21 2.67 20.42 2.34 -1 2 C-0.67 1.34 -0.34 0.68 0 0 Z " fill="#023DE2" transform="translate(782,392)"/>
  <path d="M0 0 C22.77 0 45.54 0 69 0 C69.020625 10.35375 69.04125 20.7075 69.0625 31.375 C69.071604 34.64583496 69.08070801 37.91666992 69.09008789 41.28662109 C69.09300721 43.86555948 69.09555573 46.44449832 69.09765625 49.0234375 C69.10026962 49.69581451 69.102883 50.36819153 69.10557556 51.0609436 C69.11287371 53.0371994 69.11333863 55.01347683 69.11352539 56.98974609 C69.115746 58.1044931 69.11796661 59.21924011 69.12025452 60.36776733 C69 63 69 63 68 65 C67.34 65 66.68 65 66 65 C66 44.21 66 23.42 66 2 C44.88 2 23.76 2 2 2 C2 23.45 2 44.9 2 67 C19.82 67 37.64 67 56 67 C56 67.66 56 68.32 56 69 C37.52 69 19.04 69 0 69 C0 46.23 0 23.46 0 0 Z " fill="#013FE4" transform="translate(863,326)"/>
  <path d="M0 0 C0.83272934 0.00222061 1.66545868 0.00444122 2.52342224 0.00672913 C3.95458374 0.0069104 3.95458374 0.0069104 5.41465759 0.00709534 C6.92920532 0.01476929 6.92920532 0.01476929 8.47434998 0.02259827 C9.39727844 0.02360535 10.32020691 0.02461243 11.27110291 0.02565002 C14.73339574 0.03089958 18.19567092 0.04486071 21.65794373 0.05775452 C29.39231873 0.07837952 37.12669373 0.09900452 45.09544373 0.12025452 C45.09544373 16.62025452 45.09544373 33.12025452 45.09544373 50.12025452 C29.25544373 50.12025452 13.41544373 50.12025452 -2.90455627 50.12025452 C-2.90455627 49.46025452 -2.90455627 48.80025452 -2.90455627 48.12025452 C12.27544373 48.12025452 27.45544373 48.12025452 43.09544373 48.12025452 C43.09544373 33.27025452 43.09544373 18.42025452 43.09544373 3.12025452 C28.57544373 3.12025452 14.05544373 3.12025452 -0.90455627 3.12025452 C-0.90455627 17.64025452 -0.90455627 32.16025452 -0.90455627 47.12025452 C-1.56455627 47.12025452 -2.22455627 47.12025452 -2.90455627 47.12025452 C-2.9298263 40.58746666 -2.94738919 34.05469131 -2.95948792 27.52186584 C-2.96452944 25.2975772 -2.9713625 23.07329189 -2.97999573 20.84901428 C-2.99206926 17.65947143 -2.99778623 14.46997223 -3.00221252 11.28041077 C-3.00737381 10.2793782 -3.0125351 9.27834564 -3.01785278 8.24697876 C-3.01792831 7.3260997 -3.01800385 6.40522064 -3.01808167 5.45643616 C-3.02030228 4.64147171 -3.02252289 3.82650726 -3.02481079 2.98684692 C-2.85959232 0.42232335 -2.56327262 0.16184615 0 0 Z " fill="#0739E8" transform="translate(955.9045562744141,278.87974548339844)"/>
  <path d="M0 0 C1.99954746 -0.04254356 4.00041636 -0.04080783 6 0 C7 1 7 1 7.11352539 4.78540039 C7.11327425 6.47282728 7.10771112 8.1602593 7.09765625 9.84765625 C7.09664917 10.63297729 7.09564209 11.41829834 7.09460449 12.22741699 C7.08935638 15.17245943 7.07539523 18.11748112 7.0625 21.0625 C7.041875 27.641875 7.02125 34.22125 7 41 C-6.53 41 -20.06 41 -34 41 C-34 29.45 -34 17.9 -34 6 C-52.15 6 -70.3 6 -89 6 C-89 5.67 -89 5.34 -89 5 C-70.85 5 -52.7 5 -34 5 C-34 4.34 -34 3.68 -34 3 C-33.34 3 -32.68 3 -32 3 C-32 14.88 -32 26.76 -32 39 C-19.79 39 -7.58 39 5 39 C5 26.79 5 14.58 5 2 C3.02 2 1.04 2 -1 2 C-0.67 1.34 -0.34 0.68 0 0 Z " fill="#174FE6" transform="translate(953,390)"/>
  <path d="M0 0 C3.66149297 0.01042014 7.32299339 0.01483671 10.98449707 0.01983643 C18.10756143 0.03040854 25.23059662 0.04736541 32.3536377 0.06866455 C31.5489502 6.82647705 31.5489502 6.82647705 29.7911377 9.00616455 C29.3167627 9.35678955 28.8423877 9.70741455 28.3536377 10.06866455 C27.3636377 9.07866455 27.3636377 9.07866455 26.3536377 8.06866455 C27.3436377 6.08866455 28.3336377 4.10866455 29.3536377 2.06866455 C2.6236377 2.06866455 -24.1063623 2.06866455 -51.6463623 2.06866455 C-51.6463623 1.73866455 -51.6463623 1.40866455 -51.6463623 1.06866455 C-34.4303398 -0.01504931 -17.24082442 -0.05443851 0 0 Z " fill="#013EE5" transform="translate(787.6463623046875,525.9313354492188)"/>
  <path d="M0 0 C3 1 3 1 4.61328125 4.2265625 C5.19569439 5.68642365 5.76082667 7.15324724 6.3125 8.625 C6.7621814 9.80400879 6.7621814 9.80400879 7.22094727 11.00683594 C9.67039314 17.65302917 11.63047662 24.40400351 13.4375 31.25 C13.69635986 32.22533691 13.95521973 33.20067383 14.22192383 34.20556641 C15.4097275 38.89565914 16.33574259 43.11944914 16 48 C15.01 47.67 14.02 47.34 13 47 C12.00439453 44.33886719 12.00439453 44.33886719 11.1328125 40.796875 C10.97134735 40.16324036 10.8098822 39.52960571 10.64352417 38.87677002 C10.12516378 36.83735102 9.62378311 34.79428789 9.125 32.75 C8.47094987 30.09635142 7.80763517 27.44531897 7.1328125 24.796875 C6.88413422 23.81757019 6.88413422 23.81757019 6.63043213 22.81848145 C5.16981904 17.25823813 3.17223777 11.98384229 0.94873047 6.68066406 C0 4 0 4 0 0 Z " fill="#0A44DE" transform="translate(657,695)"/>
  <path d="M0 0 C1 3 1 3 -0.22827148 5.70458984 C-0.85290283 6.77918457 -1.47753418 7.8537793 -2.12109375 8.9609375 C-2.62746117 9.84055649 -2.62746117 9.84055649 -3.14405823 10.73794556 C-4.23242531 12.62262289 -5.33487657 14.49863536 -6.4375 16.375 C-7.14607624 17.59974366 -7.85376779 18.82499961 -8.56054688 20.05078125 C-13.23177281 28.12208539 -18.07474932 36.08142511 -23 44 C-23.66 43.67 -24.32 43.34 -25 43 C-23.66628573 38.54304661 -21.89599435 34.81587232 -19.515625 30.82421875 C-19.17754822 30.25476028 -18.83947144 29.68530182 -18.4911499 29.09858704 C-17.77774168 27.89947173 -17.061569 26.70199722 -16.34277344 25.50610352 C-15.26129837 23.70630284 -14.18852511 21.90155256 -13.1171875 20.09570312 C-2.84556324 2.84556324 -2.84556324 2.84556324 0 0 Z " fill="#0A45DE" transform="translate(717,707)"/>
  <path d="M0 0 C2.61537297 3.95495425 2.44264274 8.16827373 2.625 12.75 C2.66367187 13.54277344 2.70234375 14.33554687 2.7421875 15.15234375 C2.836108 17.10119416 2.91912822 19.05056451 3 21 C3.66 21 4.32 21 5 21 C5.10634766 19.75863281 5.10634766 19.75863281 5.21484375 18.4921875 C6.20614791 14.08310335 8.16700872 10.91083001 10.5625 7.125 C10.98724609 6.43664062 11.41199219 5.74828125 11.84960938 5.0390625 C12.8910775 3.35399048 13.94435916 1.67622969 15 0 C16.11352539 1.74536133 16.11352539 1.74536133 17 4 C16.38842773 5.9987793 16.38842773 5.9987793 15.18359375 8.07421875 C14.74853516 8.82380859 14.31347656 9.57339844 13.86523438 10.34570312 C13.39408203 11.11849609 12.92292969 11.89128906 12.4375 12.6875 C11.77137695 13.8640918 11.77137695 13.8640918 11.09179688 15.06445312 C7.70864904 20.74558817 7.70864904 20.74558817 4.16015625 22.01953125 C3.09087891 22.00986328 3.09087891 22.00986328 2 22 C-0.59057549 18.05598099 -0.47809831 13.87745687 -0.6875 9.3125 C-0.73455078 8.52810547 -0.78160156 7.74371094 -0.83007812 6.93554688 C-0.93428853 4.95896588 -0.97265804 2.97913735 -1 1 C-0.67 0.67 -0.34 0.34 0 0 Z " fill="#0A43D8" transform="translate(674,753)"/>
  <path d="M0 0 C1.25668488 0.00636726 1.25668488 0.00636726 2.53875732 0.01286316 C5.20846002 0.02962467 7.87740137 0.06727164 10.546875 0.10546875 C12.35936408 0.12051888 14.17186502 0.13420672 15.984375 0.14648438 C20.42216731 0.17951986 24.85939217 0.23128432 29.296875 0.29296875 C26.47706898 3.11277477 23.66284034 2.71154427 19.875 2.85546875 C18.76859161 2.91069702 18.76859161 2.91069702 17.63983154 2.96704102 C15.27583977 3.08463205 12.91155094 3.19011496 10.546875 3.29296875 C7.44735668 3.42900175 4.34867736 3.57659132 1.25 3.73046875 C0.54353333 3.75761963 -0.16293335 3.78477051 -0.89080811 3.81274414 C-5.1424737 4.02371969 -8.73272424 4.7624358 -12.703125 6.29296875 C-12.703125 3.29296875 -12.703125 3.29296875 -11.24707031 1.6237793 C-7.57097423 -0.29929169 -4.04600475 -0.07728962 0 0 Z " fill="#275CD9" transform="translate(729.703125,524.70703125)"/>
  <path d="M0 0 C0.66 0.33 1.32 0.66 2 1 C-0.04871615 4.73689776 -2.11634634 8.46299821 -4.1875 12.1875 C-5.0547168 13.77014648 -5.0547168 13.77014648 -5.93945312 15.38476562 C-8.84096901 20.58126583 -11.43992848 25.12694491 -16 29 C-16.65653385 23.96013722 -14.36245679 20.70338083 -11.75 16.625 C-10.95242009 15.34679375 -10.15554148 14.06814963 -9.359375 12.7890625 C-8.96427734 12.16418945 -8.56917969 11.53931641 -8.16210938 10.89550781 C-7.0063435 9.01034684 -5.94677817 7.09075347 -4.890625 5.1484375 C-3 2 -3 2 0 0 Z " fill="#073FE0" transform="translate(685,586)"/>
  <path d="M0 0 C0.33 0.66 0.66 1.32 1 2 C-0.63516969 5.05109875 -2.48971173 7.9318935 -4.3359375 10.859375 C-6.50016479 14.94397299 -7.59584574 18.04179341 -6.22265625 22.5546875 C-5.83980469 23.32039062 -5.45695313 24.08609375 -5.0625 24.875 C-4.68222656 25.65617188 -4.30195312 26.43734375 -3.91015625 27.2421875 C-3.60980469 27.82226562 -3.30945313 28.40234375 -3 29 C-3.99 29 -4.98 29 -6 29 C-11.12908778 20.44578313 -11.12908778 20.44578313 -10.6875 15.5 C-4.73684211 3.15789474 -4.73684211 3.15789474 0 0 Z " fill="#0842E0" transform="translate(651,645)"/>
  <path d="M0 0 C2.97922593 -0.02683987 5.95821295 -0.04676037 8.9375 -0.0625 C9.78763672 -0.07087891 10.63777344 -0.07925781 11.51367188 -0.08789062 C12.32255859 -0.09111328 13.13144531 -0.09433594 13.96484375 -0.09765625 C14.7137085 -0.10289307 15.46257324 -0.10812988 16.23413086 -0.11352539 C18 0 18 0 19 1 C19.34880225 9.04296962 19.11912964 17.02620132 18 25 C17.67 25 17.34 25 17 25 C17 17.74 17 10.48 17 3 C13.6278125 2.814375 13.6278125 2.814375 10.1875 2.625 C3.375 2.25 3.375 2.25 0 0 Z " fill="#012EE8" transform="translate(827,392)"/>
  <path d="M0 0 C0.99 0.33 1.98 0.66 3 1 C-1.95 9.91 -1.95 9.91 -7 19 C-8.32 19 -9.64 19 -11 19 C-7.53520846 12.52286393 -3.96681941 6.18357143 0 0 Z " fill="#0740DE" transform="translate(707,546)"/>
  <path d="M0 0 C0.80157883 2.31015018 1.15261745 3.56237338 0.33496094 5.90698242 C-0.02823242 6.54998291 -0.39142578 7.1929834 -0.765625 7.85546875 C-1.35923828 8.91217773 -1.35923828 8.91217773 -1.96484375 9.99023438 C-2.38894531 10.71533203 -2.81304688 11.44042969 -3.25 12.1875 C-3.65863281 12.92419922 -4.06726563 13.66089844 -4.48828125 14.41992188 C-7.60618073 19.86872691 -7.60618073 19.86872691 -11 21 C-10.45756025 16.00180515 -8.09783123 12.42422418 -5.5 8.25 C-5.08363281 7.56550781 -4.66726563 6.88101563 -4.23828125 6.17578125 C-1.18375319 1.18375319 -1.18375319 1.18375319 0 0 Z " fill="#043FE2" transform="translate(733,678)"/>
  <path d="M0 0 C0.66 0 1.32 0 2 0 C1.50867595 5.5338604 -0.58002372 9.26010874 -3.4375 13.875 C-4.04948242 14.90753906 -4.04948242 14.90753906 -4.67382812 15.9609375 C-5.71957747 17.68053839 -6.85319618 19.34607742 -8 21 C-8.66 21 -9.32 21 -10 21 C-9.41681372 16.6620527 -7.82533957 13.6587185 -5.5625 9.9375 C-3.58840286 6.6693183 -1.64517074 3.44741808 0 0 Z " fill="#0945E1" transform="translate(797,564)"/>
  <path d="M0 0 C1 3 1 3 0.33496094 4.79345703 C-0.02823242 5.44169434 -0.39142578 6.08993164 -0.765625 6.7578125 C-1.16136719 7.46550781 -1.55710937 8.17320312 -1.96484375 8.90234375 C-2.38894531 9.63582031 -2.81304688 10.36929688 -3.25 11.125 C-3.65863281 11.86621094 -4.06726563 12.60742188 -4.48828125 13.37109375 C-7.61581884 18.87193961 -7.61581884 18.87193961 -11 20 C-10.42228148 15.34269991 -8.39706248 11.73321811 -6.0625 7.75 C-5.70220703 7.11320313 -5.34191406 6.47640625 -4.97070312 5.8203125 C-2.26182685 1.13091343 -2.26182685 1.13091343 0 0 Z " fill="#0743E2" transform="translate(775,605)"/>
  <path d="M0 0 C4.61251942 3.97189172 7.0631034 8.22177215 9 14 C9 14.99 9 15.98 9 17 C5.19850864 15.54601078 4.00635493 13.80320598 2.25 10.1875 C1.60804688 8.90939453 1.60804688 8.90939453 0.953125 7.60546875 C-0.04444794 4.87849681 -0.18599776 2.87779864 0 0 Z " fill="#0842DE" transform="translate(648,676)"/>
  <path d="M0 0 C2.61537297 3.95495425 2.44264274 8.16827373 2.625 12.75 C2.66367187 13.54277344 2.70234375 14.33554687 2.7421875 15.15234375 C2.836108 17.10119416 2.91912822 19.05056451 3 21 C3.66 21 4.32 21 5 21 C5 19.68 5 18.36 5 17 C5.66 17 6.32 17 7 17 C6.67 18.65 6.34 20.3 6 22 C4.68 22 3.36 22 2 22 C-0.59057549 18.05598099 -0.47809831 13.87745687 -0.6875 9.3125 C-0.73455078 8.52810547 -0.78160156 7.74371094 -0.83007812 6.93554688 C-0.93428853 4.95896588 -0.97265804 2.97913735 -1 1 C-0.67 0.67 -0.34 0.34 0 0 Z " fill="#0F40BE" transform="translate(674,753)"/>
  <path d="M0 0 C0.66 0.33 1.32 0.66 2 1 C-0.475 5.455 -0.475 5.455 -3 10 C-3.66 10 -4.32 10 -5 10 C-5 10.66 -5 11.32 -5 12 C-5.99 12.33 -6.98 12.66 -8 13 C-6.68203796 8.38713287 -4.86611786 4.85134588 -2 1 C-1.34 0.67 -0.68 0.34 0 0 Z " fill="#0841DF" transform="translate(659,631)"/>
  <path d="M0 0 C0.33 0.66 0.66 1.32 1 2 C0.36328125 3.875 0.36328125 3.875 -0.6875 6 C-1.18830078 7.051875 -1.18830078 7.051875 -1.69921875 8.125 C-3.21910635 10.31582897 -4.55687434 11.01246289 -7 12 C-4.03846154 2.69230769 -4.03846154 2.69230769 0 0 Z " fill="#0437E1" transform="translate(667,617)"/>
  <path d="M0 0 C0.66 0.33 1.32 0.66 2 1 C-0.97 5.95 -0.97 5.95 -4 11 C-4.66 10.67 -5.32 10.34 -6 10 C-5.35389319 6.51102321 -3.98128683 3.93230451 -2 1 C-1.34 0.67 -0.68 0.34 0 0 Z " fill="#0440E0" transform="translate(696,567)"/>
  <path d="M0 0 C0 3.3 0 6.6 0 10 C-0.66 10 -1.32 10 -2 10 C-2 7.36 -2 4.72 -2 2 C-4.31 2 -6.62 2 -9 2 C-5.5647952 -0.29013653 -4.014669 -0.17842973 0 0 Z " fill="#0025E6" transform="translate(907,457)"/>
  <path d="M0 0 C0.99 0.495 0.99 0.495 2 1 C2.4140625 3.28515625 2.4140625 3.28515625 2.625 6.0625 C2.69976563 6.98160156 2.77453125 7.90070312 2.8515625 8.84765625 C2.92503906 9.91306641 2.92503906 9.91306641 3 11 C2.01 10.67 1.02 10.34 0 10 C0 6.7 0 3.4 0 0 Z " fill="#0137DC" transform="translate(670,732)"/>
  <path d="M0 0 C0.6875 1.625 0.6875 1.625 1 4 C-0.4375 7.25 -0.4375 7.25 -2 10 C-2.99 9.67 -3.98 9.34 -5 9 C-3.7508258 5.54074837 -2.32472205 2.85306797 0 0 Z " fill="#0F47E2" transform="translate(733,678)"/>
  <path d="M0 0 C0.66 0 1.32 0 2 0 C1.4739075 3.78786597 0.61896089 6.17152224 -2 9 C-2.66 9 -3.32 9 -4 9 C-2.94124926 5.59687262 -1.99097846 2.98646769 0 0 Z " fill="#053FE4" transform="translate(806,549)"/>
  <path d="M0 0 C0.66 0 1.32 0 2 0 C2.33 2.64 2.66 5.28 3 8 C2.01 8.33 1.02 8.66 0 9 C0 6.03 0 3.06 0 0 Z " fill="#0238DD" transform="translate(672,745)"/>
  <path d="M0 0 C0.33 0 0.66 0 1 0 C0.75 3.375 0.75 3.375 0 7 C-2.0625 8.4375 -2.0625 8.4375 -4 9 C-2.94124926 5.59687262 -1.99097846 2.98646769 0 0 Z " fill="#0744E6" transform="translate(751,646)"/>
  <path d="M0 0 C0.66 0 1.32 0 2 0 C1.125 4.75 1.125 4.75 0 7 C-0.66 7 -1.32 7 -2 7 C-1.125 1.125 -1.125 1.125 0 0 Z " fill="#0842E0" transform="translate(744,658)"/>
  <path d="M0 0 C0.66 0 1.32 0 2 0 C1.67 1.98 1.34 3.96 1 6 C0.01 6.33 -0.98 6.66 -2 7 C-1.125 2.25 -1.125 2.25 0 0 Z " fill="#0541E0" transform="translate(784,587)"/>
  <path d="M0 0 C0.66 0 1.32 0 2 0 C1.50168276 3.68754757 0.89932357 5.60490662 -2 8 C-1.125 2.25 -1.125 2.25 0 0 Z " fill="#083CE5" transform="translate(812,538)"/>
</svg>